<?xml version="1.0" encoding="iso-8859-1"?>
<!-- Generator: Adobe Illustrator 19.0.0, SVG Export Plug-In . SVG Version: 6.00 Build 0)  -->
<svg version="1.1" id="Layer_1" xmlns="http://www.w3.org/2000/svg" xmlns:xlink="http://www.w3.org/1999/xlink" x="0px" y="0px"
	 viewBox="0 0 269.059 269.059" style="enable-background:new 0 0 269.059 269.059;" xml:space="preserve">
<g>
	
		<rect x="21.966" y="100.093" transform="matrix(-0.7071 0.7071 -0.7071 -0.7071 327.7177 127.44)" style="fill:#28D2E4;" width="230.998" height="62.999"/>
	<path style="fill:#13829B;" d="M252.324,61.283c12.301-12.301,12.301-32.246,0-44.548l0,0c-12.301-12.302-32.246-12.302-44.548,0
		l-10.913,10.913l44.548,44.548L252.324,61.283z"/>
	<polygon style="fill:#FFDB77;" points="33.522,190.99 7.514,261.545 78.07,235.538 	"/>
	<g>
		<path style="fill:#22313F;" d="M257.627,11.432c-15.241-15.241-39.911-15.243-55.154,0
			C196.836,17.069,40.87,173.036,28.218,185.687c-0.72,0.72-1.323,1.636-1.704,2.641c-0.009,0.023-0.021,0.045-0.03,0.068
			L0.477,258.951c-2.209,5.991,3.637,11.84,9.631,9.631l70.555-26.007c0.024-0.009,0.046-0.022,0.07-0.031
			c1.009-0.383,1.927-0.99,2.64-1.703c5.582-5.582,149.482-149.481,174.254-174.255C272.87,51.344,272.87,26.675,257.627,11.432z
			 M20.174,248.885l16.331-44.305l27.974,27.974L20.174,248.885z M78.069,224.931L44.128,190.99L196.863,38.255l33.941,33.941
			L78.069,224.931z M247.021,55.98l-5.609,5.609L207.47,27.648l5.61-5.61c9.38-9.379,24.56-9.38,33.941,0
			C256.401,31.418,256.401,46.599,247.021,55.98z"/>
		<path style="fill:#22313F;" d="M173.249,85.204l-82.17,82.17c-2.929,2.929-2.929,7.678,0,10.606c2.929,2.929,7.678,2.929,10.606,0
			l82.17-82.17c2.929-2.929,2.929-7.678,0-10.606C180.926,82.276,176.177,82.276,173.249,85.204z"/>
	</g>
</g>
<g>
</g>
<g>
</g>
<g>
</g>
<g>
</g>
<g>
</g>
<g>
</g>
<g>
</g>
<g>
</g>
<g>
</g>
<g>
</g>
<g>
</g>
<g>
</g>
<g>
</g>
<g>
</g>
<g>
</g>
</svg>
